/* XPM */
static char * bt_xpm[] = {
"48 48 256 2",
"  	c None",
". 	c #ECD25B",
"+ 	c #C5A301",
"@ 	c #040401",
"# 	c #FDEEA7",
"$ 	c #8C7402",
"% 	c #473B03",
"& 	c #FFE448",
"* 	c #D2AD00",
"= 	c #FFFDE8",
"- 	c #C29F01",
"; 	c #FFD926",
"> 	c #E5BD01",
", 	c #FFF295",
"' 	c #FEFEFF",
") 	c #EAC200",
"! 	c #9C8100",
"~ 	c #5C5C5C",
"{ 	c #FFDC00",
"] 	c #CDA901",
"^ 	c #ABA691",
"/ 	c #FFF8D7",
"( 	c #6B6B6C",
"_ 	c #474334",
": 	c #838382",
"< 	c #C5C5C5",
"[ 	c #FCE46A",
"} 	c #FFFCDB",
"| 	c #181401",
"1 	c #ABACB0",
"2 	c #B2B2B2",
"3 	c #FFD511",
"4 	c #222222",
"5 	c #A08400",
"6 	c #4A4A4A",
"7 	c #3D3D3E",
"8 	c #DADBDA",
"9 	c #D4D4D3",
"0 	c #FFD500",
"a 	c #3D3200",
"b 	c #C8B24D",
"c 	c #525253",
"d 	c #939494",
"e 	c #FACD00",
"f 	c #FFD40B",
"g 	c #AF9001",
"h 	c #FFEB75",
"i 	c #B99801",
"j 	c #2A2303",
"k 	c #FFD100",
"l 	c #FFD400",
"m 	c #4D4A3A",
"n 	c #FFD700",
"o 	c #FFEC8D",
"p 	c #FFE253",
"q 	c #9D9D9D",
"r 	c #FED200",
"s 	c #FFFEF5",
"t 	c #F3F5FE",
"u 	c #F9E160",
"v 	c #EAEAEA",
"w 	c #CACACA",
"x 	c #727272",
"y 	c #5C4C01",
"z 	c #AD8E00",
"A 	c #F4CB00",
"B 	c #BEBEBE",
"C 	c #FFED6B",
"D 	c #FFDB0B",
"E 	c #B69601",
"F 	c #CAAD29",
"G 	c #D6B101",
"H 	c #7E6E24",
"I 	c #FFF3B5",
"J 	c #DAB401",
"K 	c #121111",
"L 	c #7C6500",
"M 	c #7A6E37",
"N 	c #7C7C7D",
"O 	c #FEEA86",
"P 	c #B19201",
"Q 	c #FFE100",
"R 	c #FFD900",
"S 	c #48422A",
"T 	c #1A1A1B",
"U 	c #927C1A",
"V 	c #856E00",
"W 	c #C8A601",
"X 	c #4D4002",
"Y 	c #797979",
"Z 	c #C2C3C9",
"` 	c #997E01",
" .	c #2B2613",
"..	c #D1CAAA",
"+.	c #A68900",
"@.	c #967C00",
"#.	c #655819",
"$.	c #5C5D62",
"%.	c #BF9D00",
"&.	c #645200",
"*.	c #756101",
"=.	c #8D8E8F",
"-.	c #362D01",
";.	c #231C01",
">.	c #4B4114",
",.	c #F2C800",
"'.	c #A3A3A2",
").	c #554913",
"!.	c #957A01",
"~.	c #FCD006",
"{.	c #434241",
"].	c #E6E6E6",
"^.	c #715D00",
"/.	c #2B2B2B",
"(.	c #3B3413",
"_.	c #ABABAB",
":.	c #AE920D",
"<.	c #FFDB14",
"[.	c #DBBA18",
"}.	c #FFEB63",
"|.	c #B9B9B9",
"1.	c #927900",
"2.	c #D9B302",
"3.	c #FEE65F",
"4.	c #302C18",
"5.	c #A48701",
"6.	c #DFB801",
"7.	c #333332",
"8.	c #FFF5C7",
"9.	c #100D01",
"0.	c #695600",
"a.	c #FCD100",
"b.	c #252526",
"c.	c #F7CC01",
"d.	c #333337",
"e.	c #AA8C00",
"f.	c #FCD500",
"g.	c #907600",
"h.	c #DEB700",
"i.	c #FFFCEF",
"j.	c #38352E",
"k.	c #141518",
"l.	c #79660E",
"m.	c #FDD601",
"n.	c #FFD102",
"o.	c #FAD000",
"p.	c #1D1E21",
"q.	c #1F2027",
"r.	c #575758",
"s.	c #6E5900",
"t.	c #FFE87E",
"u.	c #514300",
"v.	c #FFE700",
"w.	c #FBD400",
"x.	c #A78A00",
"y.	c #2B2B30",
"z.	c #BC9B01",
"A.	c #604F00",
"B.	c #3E3F40",
"C.	c #0C0C0E",
"D.	c #FFD202",
"E.	c #F5F5F6",
"F.	c #FFCF00",
"G.	c #E8BF01",
"H.	c #FFEF78",
"I.	c #FFF7AE",
"J.	c #D2BA3E",
"K.	c #DEB808",
"L.	c #9D830C",
"M.	c #7D6908",
"N.	c #FFF17A",
"O.	c #CFAE12",
"P.	c #EFCA00",
"Q.	c #C1B78E",
"R.	c #F8EEBF",
"S.	c #FFDC3D",
"T.	c #73757D",
"U.	c #7E7D76",
"V.	c #75651C",
"W.	c #C9CBD6",
"X.	c #D4B30D",
"Y.	c #8E7B26",
"Z.	c #A18D2C",
"`.	c #B1B3B8",
" +	c #B7B7B9",
".+	c #8C8253",
"++	c #9F9770",
"@+	c #FED406",
"#+	c #BEAB54",
"$+	c #FED602",
"%+	c #977E0B",
"&+	c #97842F",
"*+	c #FCD300",
"=+	c #BDBEC4",
"-+	c #C8C8C8",
";+	c #AEB0B8",
">+	c #C1A00D",
",+	c #A8984F",
"'+	c #FED503",
")+	c #939599",
"!+	c #504D44",
"~+	c #606060",
"{+	c #4D4D4F",
"]+	c #FFE670",
"^+	c #5E5A48",
"/+	c #BE9E05",
"(+	c #9E8613",
"_+	c #F2E28C",
":+	c #FFF7D0",
"<+	c #DDB607",
"[+	c #5F552A",
"}+	c #D5B623",
"|+	c #A28808",
"1+	c #9798A0",
"2+	c #272727",
"3+	c #E6BF0E",
"4+	c #F6D200",
"5+	c #B99905",
"6+	c #FFE130",
"7+	c #FFE014",
"8+	c #FFE95D",
"9+	c #FCD803",
"0+	c #464647",
"a+	c #AA901A",
"b+	c #BA9F0F",
"c+	c #F4CA06",
"d+	c #B7980B",
"e+	c #F6CD06",
"f+	c #B49608",
"g+	c #E8C211",
"h+	c #E6C007",
"i+	c #F1EDCF",
"j+	c #CECCBF",
"k+	c #38383A",
"l+	c #9EA0A8",
"m+	c #64550F",
"n+	c #FFF289",
"o+	c #FDEC99",
"p+	c #B49301",
"q+	c #FFD517",
"r+	c #EFC600",
"s+	c #AE9007",
"t+	c #CBC092",
"u+	c #1B190E",
"v+	c #E4E5E8",
"w+	c #F2D343",
"x+	c #FFDB31",
"y+	c #FFFFFB",
"z+	c #9F8301",
"A+	c #EFF0F0",
"B+	c #FFFDD1",
"C+	c #FACE04",
"D+	c #E8CB3F",
"E+	c #FFD200",
"F+	c #FFFFFF",
"G+	c #000000",
"                                                                                        {.T C.B.",
"                                                                                    d K r.: 2+@ ",
"                                                                                  d b.=.w d T @ ",
"                                                    x d.q.q.q.p.k.k.T 4 4 p.4 k+~+c -+< x 4 G+T ",
"                                                k+K {.M Y.U &+++`.Z w < B _.d x 4 N 8 ( K G+G+x ",
"                                          N y.j #.b _+[ ; 0 n <.}.} F+F+F+F+F+F+: 4 ~+4 G+G+k+  ",
"                                      B.k.).g.J.O n+p x+f l l E+k f t.i.F+F+F+F+8 b.G+G+G+/.    ",
"                                    T (.` e+}.I.h ; l l E+E+E+E+E+k k S./ F+F+F+F+B 6 K 4       ",
"                                  T ).<+6+, 8.h 7+f.o.A r E+D.E+E+E+E+F.q+# F+F+F+F+F+: /.      ",
"                                2+).<+3.:+} H.g+!.y % a 6.n E+E+E+E+E+E+k n.o F+F+F+F+|.K       ",
"                              d.(.[.o i.= 3.z+j G+@ G+G+z.{ E+E+E+E+E+E+E+k k o F+F+F+9 b.=.    ",
"                            r.4.O., F+s u L @ G+G+G+G+G+^.R l E+E+E+E+E+l R { l # F+F+].{.(     ",
"                            K f+H.F+y+[ s.@ G+@ @ G+G+G+;.* n E+E+E+l { R G V J <./ F+A+c {+    ",
"                          p.l.& = F+, L G+@ G+G+G+G+G+G+G+0.0 l E+{ { W A.9.G+*.n p ' E.~ {+    ",
"                        ( 4.D+} F+B+F 9.G+G+G+G+@ G+G+@ ;.! 0 l 0 W u.@ G+G+@ ;.h.'+# t r.r.    ",
"                        k.Z., F+y+8+L G+G+@ G+G+G+@ % z.A { { n A % G+@ @ G+G+@ 1.l w+v+0+x     ",
"                      N 4.w+} F+I C+% G+@ 9.@ G+@ V w.P.1.A.+.*+R V G+G+G+G+G+G+% G.3+..y.      ",
"                      4 $ N.' ' 3.e &.@ G+G+G+G+L Q ] ;.G+G+G+$ { ] @ G+G+G+G+G+;.%.] #+q.      ",
"                      | [.B+' 8.3 0 G 0.j 9.G+| > o.-.G+G+G+G+9.J k j G+G+G+G+G+9.5.- :.k.      ",
"                    r.y & i.' ]+F.E+0 $+) + 1.L c.* 9.G+G+G+G+G+W Q y G+G+G+G+G+9.` + L.T       ",
"                    C.(+C s 8.q+k E+E+l n { { R n G.;.G+G+G+G+-.,.l X G+G+G+G+G+| !.* V.7       ",
"                6 K 4 }+h = t.k E+E+3 3 E+E+E+l E+n $ @ G+G+| i R k ! y a ;.| @ ;.! * X (       ",
"            N k.>.! S . p I p k E+E+@+f E+E+E+E+n { f.P 0.^.] R l E+R m.c.J z !.V z P |         ",
"        q 4 j (+3 - !+R.& O ; k E+E+E+E+E+E+E+0 J %.r+Q Q Q Q n E+E+E+0 c.] E g 5.%.^.b.        ",
"      {.u+V.h+Q R 5 $.F+]+q+D.E+E+E+E+E+E+E+l m.A.| -.0.5 ! ^.g n E+l e * g z z+5 p+-.:         ",
"    6 (.X.D n 2.] V T.F+/ 3 k E+E+E+E+E+E+E+R ] | G+G+G+G+@ 9.X l 0 a.* e.e.5.@.i V  .          ",
"    C.b+Q 0 G.z.- A.=.F+F+O k E+E+E+E+E+E+l R *.G+G+G+G+G+G+@ | ] { J 5.5.+.@.! W X ^+          ",
"  ~ >.'+0 c.W i i X '.F+F+s x+k E+0 n l E+0 G.j G+G+9.@ G+G+G+G+^.) +.5 +.` g.- $ T             ",
"  k.|+{ k 2.E E P %  +F+F+F+I n.0 4+6.e l { x.G+G+G+@ G+G+G+G+G+| @.5.5.` g.z z+4.:             ",
"N j ,.n > E g E P % =+F+F+F+F+h w.s.j 6.n 0 0.G+G+G+G+G+@ @ G+G+G+A.z ! g.5 `  .r.              ",
"4 @.v.m.z.5 g E s+S 1 F+F+F+F+s M G+*.o.l l * &.9.G+G+G+G+G+G+G+9.y ! g.! $ ;.c                 ",
"2+l.$ M.% a -.;.u+@ N F+F+F+F+d G+m+e 0 E+E+R m.G ! 0.X a u.*.V 1.@.g.@.*.| ~+                  ",
"  $.$.k+~ U.q     : 7 E.F+F+'.G+{+i+C D.E+l l 0 { { a.> ] z.g +.@.@.!.X 9.                      ",
"                    T -+F+ +C./.8 F+' o+~.e c.,.> G + E e.5 @.g.z+%+(.p.                        ",
"                    x Y B K k._.9 w w W.t+b F >+p+z +.z+` @.5.a+H  .B.                          ",
"                      7.T p.B ].< |.2 2 ;+;+1 ^ ,+a+:.d+>+/+U S k.N                             ",
"                      @ G+( 9 v E.v ].8 9 -+Z Z Z j+..Q..+(.K ~+                                ",
"                    C.G+c   y.7.x 1+l+)+N ~ 6 {.{._ j.k.p.Y                                     ",
"                  T G+r.      '.2+[+% a a &.@.e.g +.;.0+                                        ",
"                /.@             m s+z e.%.J 9+{ v.1.k.                                          ",
"                B.              _ V 5.P - G D.{ %.9.                                            ",
"                                _ g.x.E z.J n r+% {+                                            ",
"                                4.5 g %.* 6.n L p.                                              ",
"                                4.i + > c.{ G  .q                                               ",
"                                >.e+f.{ A W #.B.                                                ",
"                                ).'+W *.>.7.d.                                                  ",
"                                u+% 9.y.(                                                       ",
"                                7 ~+                                                            "};
